<svg class="main-svg" xmlns="http://www.w3.org/2000/svg" xmlns:xlink="http://www.w3.org/1999/xlink" width="1400" height="800" style="" viewBox="0 0 1400 800"><rect x="0" y="0" width="1400" height="800" style="fill: rgb(250, 250, 250); fill-opacity: 1;"/><defs id="defs-afb6a2"><g class="clips"/><g class="gradients"/><g class="patterns"/></defs><g class="bglayer"/><g class="layer-below"><g class="imagelayer"/><g class="shapelayer"/></g><g class="cartesianlayer"/><g class="polarlayer"/><g class="smithlayer"/><g class="ternarylayer"/><g class="geolayer"/><g class="funnelarealayer"/><g class="pielayer"/><g class="iciclelayer"/><g class="treemaplayer"/><g class="sunburstlayer"/><g class="glimages"/><g class="sankey" transform="translate(20,100)matrix(1 0 0 1 0 0)" style="box-sizing: content-box; position: absolute; left: 0px; shape-rendering: geometricprecision; pointer-events: none;"><g class="sankey-links" style="fill: none;"><path class="sankey-link" d="M25,167.49140558017632C346.25,167.49140558017632 346.25,-4.121147867408581e-13 667.5,-4.121147867408581e-13L667.5,152.9609418173202C346.25,152.9609418173202 346.25,320.45234739749696 25,320.45234739749696Z" style="stroke: rgb(68, 68, 68); stroke-opacity: 1; fill: rgb(155, 187, 225); fill-opacity: 0.4; stroke-width: 0; opacity: 1;"/><path class="sankey-link" d="M25,320.45234739749696C346.25,320.45234739749696 346.25,305.9086602984131 667.5,305.9086602984131L667.5,409.4077129549222C346.25,409.4077129549222 346.25,423.95140005400606 25,423.95140005400606Z" style="stroke: rgb(68, 68, 68); stroke-opacity: 1; fill: rgb(254, 163, 162); fill-opacity: 0.4; stroke-width: 0; opacity: 1;"/><path class="sankey-link" d="M25,423.951400054006C346.25,423.951400054006 346.25,512.8935422752033 667.5,512.8935422752033L667.5,591.4533828057156C346.25,591.4533828057156 346.25,502.51124058451836 25,502.51124058451836Z" style="stroke: rgb(68, 68, 68); stroke-opacity: 1; fill: rgb(142, 139, 254); fill-opacity: 0.4; stroke-width: 0; opacity: 1;"/><path class="sankey-link" d="M692.5,279.1446277729529C1013.75,279.1446277729529 1013.75,601.747750059209 1335,601.747750059209L1335,628.5117825846689C1013.75,628.5117825846689 1013.75,305.9086602984127 692.5,305.9086602984127Z" style="stroke: rgb(68, 68, 68); stroke-opacity: 1; fill: rgb(155, 187, 225); fill-opacity: 0.4; stroke-width: 0; opacity: 1;"/><path class="sankey-link" d="M692.5,-4.121147867408581e-13C1013.75,-4.121147867408581e-13 1013.75,-3.979039320256561e-13 1335,-3.979039320256561e-13L1335,126.19029762374635C1013.75,126.19029762374635 1013.75,126.19029762374633 692.5,126.19029762374633Z" style="stroke: rgb(68, 68, 68); stroke-opacity: 1; fill: rgb(155, 187, 225); fill-opacity: 0.4; stroke-width: 0; opacity: 1;"/><path class="sankey-link" d="M692.5,247.79209757637915C1013.75,247.79209757637915 1013.75,495.38584510933947 1335,495.38584510933947L1335,526.7383753059132C1013.75,526.7383753059132 1013.75,279.1446277729529 692.5,279.1446277729529Z" style="stroke: rgb(68, 68, 68); stroke-opacity: 1; fill: rgb(155, 187, 225); fill-opacity: 0.4; stroke-width: 0; opacity: 1;"/><path class="sankey-link" d="M692.5,126.19029762374633C1013.75,126.19029762374633 1013.75,266.7477500592085 1335,266.7477500592085L1335,388.34955001184136C1013.75,388.34955001184136 1013.75,247.79209757637915 692.5,247.79209757637915Z" style="stroke: rgb(68, 68, 68); stroke-opacity: 1; fill: rgb(155, 187, 225); fill-opacity: 0.4; stroke-width: 0; opacity: 1;"/><path class="sankey-link" d="M692.5,496.8536354306465C1013.75,496.8536354306465 1013.75,628.5117825846688 1335,628.5117825846688L1335,644.5516894292256C1013.75,644.5516894292256 1013.75,512.8935422752032 692.5,512.8935422752032Z" style="stroke: rgb(68, 68, 68); stroke-opacity: 1; fill: rgb(254, 163, 162); fill-opacity: 0.4; stroke-width: 0; opacity: 1;"/><path class="sankey-link" d="M692.5,305.9086602984131C1013.75,305.9086602984131 1013.75,126.19029762374635 1335,126.19029762374635L1335,213.64283176758465C1013.75,213.64283176758465 1013.75,393.3611944422514 692.5,393.3611944422514Z" style="stroke: rgb(68, 68, 68); stroke-opacity: 1; fill: rgb(254, 163, 162); fill-opacity: 0.4; stroke-width: 0; opacity: 1;"/><path class="sankey-link" d="M692.5,444.07268887660837C1013.75,444.07268887660837 1013.75,526.7383753059132 1335,526.7383753059132L1335,579.5193218599513C1013.75,579.5193218599513 1013.75,496.8536354306465 692.5,496.8536354306465Z" style="stroke: rgb(68, 68, 68); stroke-opacity: 1; fill: rgb(254, 163, 162); fill-opacity: 0.4; stroke-width: 0; opacity: 1;"/><path class="sankey-link" d="M692.5,393.3611944422514C1013.75,393.3611944422514 1013.75,388.3495500118413 1335,388.3495500118413L1335,439.06104444619825C1013.75,439.06104444619825 1013.75,444.07268887660837 692.5,444.07268887660837Z" style="stroke: rgb(68, 68, 68); stroke-opacity: 1; fill: rgb(254, 163, 162); fill-opacity: 0.4; stroke-width: 0; opacity: 1;"/><path class="sankey-link" d="M692.5,644.5516894292256C1013.75,644.5516894292256 1013.75,644.5516894292256 1335,644.5516894292256L1335,670.0000000000001C1013.75,670.0000000000001 1013.75,670.0000000000001 692.5,670.0000000000001Z" style="stroke: rgb(68, 68, 68); stroke-opacity: 1; fill: rgb(142, 139, 254); fill-opacity: 0.4; stroke-width: 0; opacity: 1;"/><path class="sankey-link" d="M692.5,512.8935422752033C1013.75,512.8935422752033 1013.75,213.64283176758465 1335,213.64283176758465L1335,266.74775005920856C1013.75,266.74775005920856 1013.75,565.9984605668274 692.5,565.9984605668274Z" style="stroke: rgb(68, 68, 68); stroke-opacity: 1; fill: rgb(142, 139, 254); fill-opacity: 0.4; stroke-width: 0; opacity: 1;"/><path class="sankey-link" d="M692.5,622.3232612299677C1013.75,622.3232612299677 1013.75,579.5193218599513 1335,579.5193218599513L1335,601.7477500592092C1013.75,601.7477500592092 1013.75,644.5516894292256 692.5,644.5516894292256Z" style="stroke: rgb(68, 68, 68); stroke-opacity: 1; fill: rgb(142, 139, 254); fill-opacity: 0.4; stroke-width: 0; opacity: 1;"/><path class="sankey-link" d="M692.5,565.9984605668272C1013.75,565.9984605668272 1013.75,439.0610444461983 1335,439.0610444461983L1335,495.38584510933873C1013.75,495.38584510933873 1013.75,622.3232612299677 692.5,622.3232612299677Z" style="stroke: rgb(68, 68, 68); stroke-opacity: 1; fill: rgb(142, 139, 254); fill-opacity: 0.4; stroke-width: 0; opacity: 1;"/></g><g class="sankey-node-set" style="cursor: ns-resize;"><g class="sankey-node" transform="translate(0.000,167.491)" style="opacity: 1;"><rect class="node-rect" width="25" height="335.019835004342" style="stroke-width: 2; stroke: rgb(255, 255, 255); stroke-opacity: 1; fill: rgb(100, 100, 100); fill-opacity: 0.85;"/><text class="node-label" data-notex="1" x="0" y="0" text-anchor="start" transform="translate(29,171.359917502171)" style="cursor: default; font-family: Arial; font-size: 11px; fill: rgb(42, 63, 95); fill-opacity: 1; text-shadow: rgb(255, 255, 255) 1px 1px 1px, rgb(255, 255, 255) -1px -1px 1px, rgb(255, 255, 255) 1px -1px 1px, rgb(255, 255, 255) -1px 1px 1px; white-space: pre;">Total Samples N=50,671</text></g><g class="sankey-node" transform="translate(667.500,-0.000)" style="opacity: 1;"><rect class="node-rect" width="25" height="305.9086602984135" style="stroke-width: 2; stroke: rgb(255, 255, 255); stroke-opacity: 1; fill: rgb(155, 187, 225); fill-opacity: 0.85;"/><text class="node-label" data-notex="1" x="0" y="0" text-anchor="start" transform="translate(29,156.80433014920675)" style="cursor: default; font-family: Arial; font-size: 11px; fill: rgb(42, 63, 95); fill-opacity: 1; text-shadow: rgb(255, 255, 255) 1px 1px 1px, rgb(255, 255, 255) -1px -1px 1px, rgb(255, 255, 255) 1px -1px 1px, rgb(255, 255, 255) -1px 1px 1px; white-space: pre;">Cluster 0 n=23,135 (45.7%) Plant-based, Minimally-processed</text></g><g class="sankey-node" transform="translate(667.500,305.909)" style="opacity: 1;"><rect class="node-rect" width="25" height="206.98488197679023" style="stroke-width: 2; stroke: rgb(255, 255, 255); stroke-opacity: 1; fill: rgb(254, 163, 162); fill-opacity: 0.85;"/><text class="node-label" data-notex="1" x="0" y="0" text-anchor="start" transform="translate(29,107.34244098839511)" style="cursor: default; font-family: Arial; font-size: 11px; fill: rgb(42, 63, 95); fill-opacity: 1; text-shadow: rgb(255, 255, 255) 1px 1px 1px, rgb(255, 255, 255) -1px -1px 1px, rgb(255, 255, 255) 1px -1px 1px, rgb(255, 255, 255) -1px 1px 1px; white-space: pre;">Cluster 1 n=15,654 (30.9%) Plant-based, Ultra-processed</text></g><g class="sankey-node" transform="translate(667.500,512.894)" style="opacity: 1;"><rect class="node-rect" width="25" height="157.10645772479666" style="stroke-width: 2; stroke: rgb(255, 255, 255); stroke-opacity: 1; fill: rgb(142, 139, 254); fill-opacity: 0.85;"/><text class="node-label" data-notex="1" x="0" y="0" text-anchor="start" transform="translate(29,82.40322886239832)" style="cursor: default; font-family: Arial; font-size: 11px; fill: rgb(42, 63, 95); fill-opacity: 1; text-shadow: rgb(255, 255, 255) 1px 1px 1px, rgb(255, 255, 255) -1px -1px 1px, rgb(255, 255, 255) 1px -1px 1px, rgb(255, 255, 255) -1px 1px 1px; white-space: pre;">Cluster 2 n=11,882 (23.4%) Higher-animal, Minimally-processed</text></g><g class="sankey-node" transform="translate(1335.000,601.748)" style="opacity: 1;"><rect class="node-rect" width="25" height="68.25224994079099" style="stroke-width: 2; stroke: rgb(255, 255, 255); stroke-opacity: 1; fill: rgb(212, 165, 116); fill-opacity: 0.85;"/><text class="node-label" data-notex="1" x="0" y="0" text-anchor="end" transform="translate(-4,37.976124970395496)" style="cursor: default; font-family: Arial; font-size: 11px; fill: rgb(42, 63, 95); fill-opacity: 1; text-shadow: rgb(255, 255, 255) 1px 1px 1px, rgb(255, 255, 255) -1px -1px 1px, rgb(255, 255, 255) 1px -1px 1px, rgb(255, 255, 255) -1px 1px 1px; white-space: pre;">Animal Source C0: 18% C1: 16% C2: 32%</text></g><g class="sankey-node" transform="translate(1335.000,-0.000)" style="opacity: 1;"><rect class="node-rect" width="25" height="266.7477500592089" style="stroke-width: 2; stroke: rgb(255, 255, 255); stroke-opacity: 1; fill: rgb(123, 163, 131); fill-opacity: 0.85;"/><text class="node-label" data-notex="1" x="0" y="0" text-anchor="end" transform="translate(-4,137.22387502960444)" style="cursor: default; font-family: Arial; font-size: 11px; fill: rgb(42, 63, 95); fill-opacity: 1; text-shadow: rgb(255, 255, 255) 1px 1px 1px, rgb(255, 255, 255) -1px -1px 1px, rgb(255, 255, 255) 1px -1px 1px, rgb(255, 255, 255) -1px 1px 1px; white-space: pre;">Plant Source C0: 82% C1: 84% C2: 68%</text></g><g class="sankey-node" transform="translate(1335.000,495.386)" style="opacity: 1;"><rect class="node-rect" width="25" height="106.36190494986954" style="stroke-width: 2; stroke: rgb(255, 255, 255); stroke-opacity: 1; fill: rgb(201, 160, 160); fill-opacity: 0.85;"/><text class="node-label" data-notex="1" x="0" y="0" text-anchor="end" transform="translate(-4,57.03095247493477)" style="cursor: default; font-family: Arial; font-size: 11px; fill: rgb(42, 63, 95); fill-opacity: 1; text-shadow: rgb(255, 255, 255) 1px 1px 1px, rgb(255, 255, 255) -1px -1px 1px, rgb(255, 255, 255) 1px -1px 1px, rgb(255, 255, 255) -1px 1px 1px; white-space: pre;">Ultra-Processed C0: 20% C1: 51% C2: 28%</text></g><g class="sankey-node" transform="translate(1335.000,266.748)" style="opacity: 1;"><rect class="node-rect" width="25" height="228.63809505013097" style="stroke-width: 2; stroke: rgb(255, 255, 255); stroke-opacity: 1; fill: rgb(168, 184, 200); fill-opacity: 0.85;"/><text class="node-label" data-notex="1" x="0" y="0" text-anchor="end" transform="translate(-4,118.16904752506548)" style="cursor: default; font-family: Arial; font-size: 11px; fill: rgb(42, 63, 95); fill-opacity: 1; text-shadow: rgb(255, 255, 255) 1px 1px 1px, rgb(255, 255, 255) -1px -1px 1px, rgb(255, 255, 255) 1px -1px 1px, rgb(255, 255, 255) -1px 1px 1px; white-space: pre;">Minimally-Processed C0: 80% C1: 49% C2: 72%</text></g></g></g><defs id="topdefs-afb6a2"><g class="clips"/></defs><g class="layer-above"><g class="imagelayer"/><g class="shapelayer"/></g><g class="infolayer"><g class="g-gtitle"><text class="gtitle" x="700" y="50" text-anchor="middle" dy="0em" style="opacity: 1; font-family: Arial; font-size: 18px; fill: rgb(42, 63, 95); fill-opacity: 1; white-space: pre;"><tspan class="line" dy="0em" x="700" y="50"><tspan style="font-weight:bold">24h Diet Pattern Clustering Analysis</tspan></tspan><tspan class="line" dy="1.3em" x="700" y="50">​<tspan style="font-size:70%" dy="-0.6em">Sankey Diagram: Samples → Clusters → Diet Characteristics (with percentages &amp; sample sizes)</tspan><tspan dy="0.42em">​</tspan></tspan></text></g><g class="first-render"/></g></svg>